# 3ds Max Wavefront OBJ Exporter v0.97b - (c)2007 guruware
# File Created: 10.12.2016 14:14:08

#
# object Line001
#

v  -25.0000 40.0000 60.0000
v  -25.0000 60.0000 60.0000
v  -25.0000 60.0000 40.0000
v  -25.0000 80.0000 40.0000
v  -25.0000 80.0000 20.0000
v  -25.0000 100.0000 20.0000
v  -25.0000 100.0000 -0.0000
v  -25.0000 70.0000 -0.0000
v  -25.0000 -0.0000 70.0000
v  -25.0000 -0.0000 100.0000
v  -25.0000 20.0000 100.0000
v  -25.0000 20.0000 80.0000
v  -25.0000 40.0000 80.0000
v  0.0000 100.0000 20.0000
v  0.0000 100.0000 0.0000
v  0.0000 70.0000 0.0000
v  -0.0000 -0.0000 70.0000
v  -0.0000 -0.0000 100.0000
v  -0.0000 20.0000 100.0000
v  -0.0000 20.0000 80.0000
v  -0.0000 40.0000 80.0000
v  -0.0000 40.0000 60.0000
v  -0.0000 60.0000 60.0000
v  -0.0000 60.0000 40.0000
v  -0.0000 80.0000 40.0000
v  0.0000 80.0000 20.0000
v  -0.0000 80.0000 20.0000
v  -0.0000 100.0000 20.0000
# 28 vertices

vn -1.0000 -0.0000 -0.0000
vn -0.0000 1.0000 -0.0000
vn 0.0000 0.0000 -1.0000
vn 0.0000 -0.7071 -0.7071
vn 0.0000 -1.0000 0.0000
vn -0.0000 0.0000 1.0000
# 6 vertex normals

g Line001
s 1
f 1//1 2//1 3//1 
f 3//1 4//1 5//1 
f 6//1 7//1 8//1 
f 5//1 6//1 8//1 
f 5//1 8//1 9//1 
f 3//1 5//1 9//1 
f 1//1 3//1 9//1 
f 10//1 11//1 12//1 
f 9//1 10//1 12//1 
f 9//1 12//1 13//1 
f 1//1 9//1 13//1 
s off
f 14//2 15//2 7//2 
f 7//2 6//2 14//2 
f 15//3 16//3 8//3 
f 8//3 7//3 15//3 
f 16//4 17//4 9//4 
f 9//4 8//4 16//4 
f 17//5 18//5 10//5 
f 10//5 9//5 17//5 
f 18//6 19//6 11//6 
f 11//6 10//6 18//6 
f 19//2 20//2 12//2 
f 12//2 11//2 19//2 
f 20//6 21//6 13//6 
f 13//6 12//6 20//6 
f 21//2 22//2 1//2 
f 1//2 13//2 21//2 
f 22//6 23//6 2//6 
f 2//6 1//6 22//6 
f 23//2 24//2 3//2 
f 3//2 2//2 23//2 
f 24//6 25//6 4//6 
f 4//6 3//6 24//6 
f 25//2 26//2 5//2 
f 5//2 4//2 25//2 
f 26//6 14//6 6//6 
f 6//6 5//6 26//6 
s 1
f 22//1 23//1 24//1 
f 24//1 25//1 27//1 
f 28//1 15//1 16//1 
f 27//1 28//1 16//1 
f 27//1 16//1 17//1 
f 24//1 27//1 17//1 
f 22//1 24//1 17//1 
f 18//1 19//1 20//1 
f 17//1 18//1 20//1 
f 17//1 20//1 21//1 
f 22//1 17//1 21//1 
# 48 faces

